# xmcd
#
# Track frame offsets:
#	150
#	13997
#	27785
#	39180
#	46787
#	59045
#	70782
#	84820
#	97360
#	121385
#
# Disc length: 1774 seconds
#
# Revision: 0
# Processed by: cddbd v1.4PL0 Copyright (c) Steve Scherf et al.
# Submitted via: AudioConverter v4.0 Copyright (c) Dennis Rebentrost
#
DISCID=7e06ec0a
DTITLE=Ray Charles - Man Licor 43
DYEAR=1998
DGENRE=Blues
TTITLE0=This Love Of Mine
TTITLE1=Someday
TTITLE2=She's On The Ball
TTITLE3=Ray Charles Blues
TTITLE4=Honey Honey
TTITLE5=Guitar Blues
TTITLE6=Walking And Talking
TTITLE7=Rocking Chair Blues
TTITLE8=Yes Indeed
TTITLE9=How Long
EXTD=
EXTT0=
EXTT1=
EXTT2=
EXTT3=
EXTT4=
EXTT5=
EXTT6=
EXTT7=
EXTT8=
EXTT9=
PLAYORDER=
